<?xml version="1.0" encoding="UTF-8" standalone="no"?>
<!DOCTYPE svg PUBLIC "-//W3C//DTD SVG 1.1//EN" "http://www.w3.org/Graphics/SVG/1.1/DTD/svg11.dtd">
<svg xmlns="http://www.w3.org/2000/svg" version="1.1" viewBox="0.00 0.00 1239.00 182.00">
<path fill="#000000" d="
  M 831.83 8.31
  L 869.58 -0.26
  A 1.41 1.41 0.0 0 1 871.30 1.12
  Q 871.25 65.64 871.31 156.48
  Q 871.31 163.06 877.26 166.13
  A 3.21 2.90 60.9 0 0 878.11 166.42
  L 886.32 168.01
  A 0.61 0.61 0.0 0 1 886.82 168.61
  L 886.82 178.39
  A 0.46 0.46 0.0 0 1 886.36 178.85
  L 833.22 178.85
  A 0.54 0.54 0.0 0 1 832.68 178.31
  L 832.68 169.02
  A 1.20 1.20 0.0 0 1 833.66 167.84
  L 841.26 166.47
  Q 841.33 166.45 841.40 166.43
  Q 848.09 163.60 848.02 155.27
  Q 847.96 148.16 847.99 21.87
  A 0.57 0.57 0.0 0 0 847.58 21.32
  L 831.86 16.64
  A 0.79 0.78 8.5 0 1 831.30 15.89
  L 831.30 8.97
  A 0.68 0.68 0.0 0 1 831.83 8.31
  Z"
/>
<path fill="#000000" d="
  M 391.45 107.46
  Q 391.47 117.33 391.43 146.49
  Q 391.42 157.72 392.06 159.47
  C 394.56 166.37 401.09 166.47 407.61 167.31
  A 0.63 0.62 3.7 0 1 408.16 167.93
  L 408.16 178.47
  A 0.38 0.38 0.0 0 1 407.78 178.85
  L 351.96 178.85
  A 0.56 0.56 0.0 0 1 351.40 178.29
  L 351.40 167.80
  A 0.56 0.55 86.5 0 1 351.88 167.25
  C 355.71 166.72 358.61 166.87 361.56 165.46
  C 367.32 162.70 367.77 158.52 367.77 152.02
  Q 367.73 80.91 367.78 41.50
  Q 367.79 34.56 365.01 31.20
  A 1.53 1.37 83.6 0 0 364.64 30.87
  L 361.03 28.71
  A 1.07 0.96 62.1 0 0 360.65 28.57
  L 352.43 27.22
  A 1.24 1.23 -85.3 0 1 351.40 26.00
  L 351.40 15.96
  A 0.34 0.33 90.0 0 1 351.73 15.62
  Q 388.78 15.63 425.25 15.62
  Q 425.65 15.62 426.15 15.90
  A 1.97 1.96 59.2 0 0 427.09 16.14
  Q 439.35 16.25 451.48 21.52
  Q 460.21 25.32 466.39 31.60
  Q 470.71 35.99 473.87 43.37
  Q 476.45 49.40 476.57 57.03
  Q 476.79 72.32 467.17 84.13
  Q 463.45 88.70 458.57 92.06
  Q 452.55 96.21 448.33 97.82
  Q 443.23 99.76 442.56 100.03
  A 1.03 1.03 0.0 0 0 442.67 101.97
  Q 456.79 106.04 462.78 119.96
  Q 468.04 132.19 476.63 153.13
  Q 478.20 156.97 480.64 159.95
  Q 486.46 167.08 495.93 167.12
  A 0.60 0.59 -90.0 0 1 496.52 167.72
  L 496.52 178.21
  A 0.64 0.64 0.0 0 1 495.88 178.85
  L 461.40 178.85
  A 0.87 0.86 78.9 0 1 460.60 178.31
  Q 442.33 132.83 438.80 124.44
  Q 436.77 119.62 432.66 114.90
  Q 428.88 110.54 423.11 108.60
  C 420.60 107.75 415.22 106.71 411.54 106.82
  Q 409.42 106.89 392.08 106.82
  A 0.63 0.63 0.0 0 0 391.45 107.46
  Z
  M 391.45 30.40
  L 391.45 92.36
  A 0.48 0.47 89.4 0 0 391.93 92.84
  Q 412.66 92.79 415.75 92.84
  Q 423.69 92.96 430.39 90.39
  Q 443.53 85.35 448.32 72.60
  Q 453.17 59.66 448.50 47.46
  Q 445.21 38.85 436.55 34.01
  Q 434.56 32.90 433.11 32.47
  Q 430.01 31.57 429.37 31.25
  A 7.24 7.22 -29.1 0 0 426.97 30.57
  C 422.46 30.12 420.74 29.77 416.68 29.78
  Q 404.65 29.84 392.08 29.78
  A 0.62 0.62 0.0 0 0 391.45 30.40
  Z"
/>
<rect fill="#000000" x="37.13" y="16.39" width="118.42" height="29.22" rx="0.31"/>
<path fill="#000000" d="
  M 754.75 158.74
  L 754.75 78.67
  A 0.34 0.34 0.0 0 0 754.41 78.33
  L 734.91 78.33
  A 0.34 0.34 0.0 0 1 734.57 77.99
  L 734.57 58.51
  A 0.34 0.34 0.0 0 1 734.91 58.17
  L 754.41 58.17
  A 0.34 0.34 0.0 0 0 754.75 57.83
  L 754.75 18.49
  A 0.34 0.34 0.0 0 1 755.09 18.15
  L 774.28 18.15
  A 0.34 0.34 0.0 0 1 774.62 18.49
  L 774.62 57.83
  A 0.34 0.34 0.0 0 0 774.96 58.17
  L 814.82 58.17
  A 0.34 0.34 0.0 0 1 815.16 58.51
  L 815.16 77.99
  A 0.34 0.34 0.0 0 1 814.82 78.33
  L 774.96 78.33
  A 0.34 0.34 0.0 0 0 774.62 78.67
  L 774.62 158.74
  A 0.34 0.34 0.0 0 1 774.28 159.08
  L 755.09 159.08
  A 0.34 0.34 0.0 0 1 754.75 158.74
  Z"
/>
<path fill="#000000" d="
  M 0.00 28.29
  L 0.00 27.16
  L 22.16 27.14
  A 0.31 0.30 -90.0 0 1 22.46 27.45
  L 22.46 34.32
  A 0.28 0.27 -90.0 0 1 22.19 34.60
  L 0.66 34.60
  A 0.53 0.52 89.4 0 1 0.14 34.08
  L 0.00 28.29
  Z"
/>
<rect fill="#000000" x="170.33" y="27.15" width="66.70" height="7.44" rx="0.50"/>
<path fill="#000000" d="
  M 609.64 112.27
  L 524.34 112.27
  A 0.52 0.52 0.0 0 0 523.82 112.82
  Q 524.38 122.07 526.13 129.35
  Q 527.41 134.66 530.17 139.82
  C 539.17 156.61 557.87 163.81 576.14 158.90
  Q 592.96 154.37 602.62 139.23
  A 0.30 0.30 0.0 0 1 603.00 139.12
  L 610.22 142.22
  A 0.27 0.27 0.0 0 1 610.36 142.58
  Q 607.24 150.04 602.66 157.20
  A 0.82 0.82 0.0 0 1 602.40 157.46
  L 602.14 157.63
  A 0.09 0.03 -73.2 0 0 602.12 157.66
  Q 591.13 173.85 572.80 179.48
  Q 570.01 180.33 567.16 180.68
  Q 565.41 180.89 563.35 181.34
  Q 561.53 181.74 559.51 181.75
  Q 551.48 181.81 549.30 181.31
  Q 546.85 180.75 544.78 180.52
  Q 542.71 180.29 540.29 179.55
  Q 515.98 172.10 506.04 147.94
  Q 503.34 141.38 502.13 133.88
  Q 499.96 120.41 502.18 105.86
  Q 503.31 98.45 506.75 90.54
  Q 519.31 61.65 550.75 56.00
  Q 555.23 55.19 566.24 55.72
  Q 569.12 55.86 572.19 56.68
  Q 576.95 57.96 578.01 58.29
  Q 584.76 60.38 591.34 65.61
  C 600.86 73.17 606.56 84.83 608.83 96.90
  Q 609.60 100.97 610.40 111.46
  A 0.76 0.75 -2.1 0 1 609.64 112.27
  Z
  M 526.06 99.98
  L 585.19 99.98
  A 0.51 0.50 -2.6 0 0 585.70 99.43
  L 585.20 94.14
  A 0.49 0.41 39.7 0 0 585.17 93.98
  Q 584.21 90.99 583.26 88.14
  Q 580.73 80.53 575.29 75.86
  Q 569.69 71.06 562.07 69.82
  C 547.51 67.46 534.15 75.59 528.32 89.13
  Q 526.70 92.89 525.06 98.67
  A 1.04 1.03 7.8 0 0 526.06 99.98
  Z"
/>
<path fill="#000000" d="
  M 712.37 65.77
  A 0.92 0.92 0.0 0 1 712.85 66.58
  L 712.83 93.91
  A 0.56 0.55 -90.0 0 1 712.28 94.47
  L 702.64 94.47
  A 0.67 0.66 79.9 0 1 702.02 94.03
  C 700.89 90.92 700.51 88.45 699.27 85.73
  Q 690.77 67.08 668.76 67.95
  Q 668.32 67.97 666.98 68.34
  Q 666.14 68.57 661.97 69.51
  Q 658.43 70.30 654.36 73.36
  Q 649.55 76.96 648.69 83.16
  C 647.48 91.97 654.15 97.39 661.64 100.30
  Q 663.76 101.12 694.53 112.10
  Q 698.87 113.65 705.40 118.07
  Q 712.32 122.73 715.43 129.98
  Q 719.20 138.82 717.62 148.22
  Q 714.88 164.45 701.38 173.39
  Q 691.39 180.01 679.79 181.01
  A 0.08 0.06 -75.8 0 0 679.73 181.06
  Q 679.66 181.24 679.61 181.29
  A 0.31 0.19 9.3 0 1 679.43 181.36
  Q 669.84 182.07 667.17 181.69
  Q 657.70 180.40 655.09 179.83
  Q 641.17 176.77 628.70 168.91
  A 1.69 1.66 15.1 0 1 627.91 167.57
  L 626.52 138.79
  A 0.64 0.64 0.0 0 1 627.16 138.12
  L 636.98 138.13
  A 0.67 0.65 81.7 0 1 637.61 138.61
  Q 641.69 152.86 650.07 160.45
  Q 656.94 166.66 665.47 168.36
  Q 671.14 169.49 681.25 168.26
  A 2.52 2.49 28.0 0 0 682.12 168.00
  Q 682.59 167.76 685.17 166.72
  C 691.76 164.06 696.32 158.57 696.74 151.38
  Q 697.29 142.17 689.09 136.67
  Q 685.80 134.47 681.12 132.84
  Q 668.49 128.42 655.25 123.69
  Q 644.99 120.04 637.71 113.97
  C 623.71 102.32 625.92 80.42 637.96 68.31
  Q 643.58 62.66 651.70 59.43
  Q 653.26 58.81 653.88 58.52
  A 1.71 0.08 -25.9 0 1 655.16 57.97
  C 658.72 57.40 662.12 56.19 665.64 55.85
  Q 690.34 53.46 712.37 65.77
  Z"
/>
<path fill="#000000" d="
  M 1008.68 112.24
  L 923.37 112.31
  A 0.52 0.52 0.0 0 0 922.85 112.86
  Q 923.42 122.11 925.17 129.39
  Q 926.46 134.70 929.22 139.86
  C 938.24 156.64 956.94 163.83 975.21 158.90
  Q 992.03 154.36 1001.68 139.21
  A 0.30 0.30 0.0 0 1 1002.06 139.10
  L 1009.28 142.19
  A 0.27 0.27 0.0 0 1 1009.42 142.55
  Q 1006.31 150.02 1001.73 157.18
  A 0.82 0.82 0.0 0 1 1001.47 157.44
  L 1001.21 157.61
  A 0.09 0.03 -73.2 0 0 1001.19 157.64
  Q 990.21 173.84 971.89 179.49
  Q 969.10 180.34 966.25 180.69
  Q 964.50 180.90 962.44 181.35
  Q 960.62 181.75 958.60 181.77
  Q 950.57 181.83 948.39 181.33
  Q 945.94 180.78 943.87 180.55
  Q 941.80 180.32 939.37 179.58
  Q 915.06 172.15 905.10 148.00
  Q 902.39 141.44 901.18 133.94
  Q 899.00 120.47 901.20 105.92
  Q 902.33 98.51 905.76 90.59
  Q 918.30 61.69 949.74 56.02
  Q 954.22 55.20 965.23 55.72
  Q 968.11 55.86 971.18 56.68
  Q 975.94 57.96 977.00 58.28
  Q 983.75 60.37 990.34 65.59
  C 999.86 73.15 1005.57 84.80 1007.85 96.87
  Q 1008.63 100.94 1009.44 111.43
  A 0.76 0.75 -2.1 0 1 1008.68 112.24
  Z
  M 925.10 99.98
  L 984.23 99.98
  A 0.51 0.50 -2.6 0 0 984.74 99.43
  L 984.24 94.14
  A 0.49 0.41 39.7 0 0 984.21 93.98
  Q 983.25 90.99 982.30 88.14
  Q 979.77 80.53 974.33 75.86
  Q 968.73 71.06 961.11 69.82
  C 946.55 67.45 933.19 75.59 927.36 89.13
  Q 925.74 92.89 924.10 98.67
  A 1.04 1.03 7.8 0 0 925.10 99.98
  Z"
/>
<path fill="#000000" d="
  M 1111.86 66.60
  L 1111.86 93.92
  A 0.56 0.55 -90.0 0 1 1111.31 94.48
  L 1101.67 94.48
  A 0.67 0.66 79.8 0 1 1101.05 94.04
  C 1099.92 90.93 1099.54 88.47 1098.30 85.75
  Q 1089.79 67.11 1067.79 67.99
  Q 1067.35 68.01 1066.01 68.38
  Q 1065.17 68.61 1061.00 69.55
  Q 1057.46 70.34 1053.39 73.40
  Q 1048.59 77.00 1047.73 83.20
  C 1046.52 92.01 1053.19 97.43 1060.68 100.33
  Q 1062.80 101.15 1093.57 112.11
  Q 1097.91 113.66 1104.44 118.07
  Q 1111.36 122.73 1114.47 129.98
  Q 1118.25 138.81 1116.67 148.21
  Q 1113.94 164.44 1100.45 173.38
  Q 1090.46 180.00 1078.87 181.01
  A 0.08 0.06 -75.8 0 0 1078.81 181.06
  Q 1078.74 181.24 1078.69 181.29
  A 0.31 0.19 9.3 0 1 1078.51 181.36
  Q 1068.92 182.07 1066.25 181.70
  Q 1056.78 180.41 1054.17 179.84
  Q 1040.26 176.79 1027.79 168.94
  A 1.69 1.66 15.0 0 1 1027.00 167.60
  L 1025.59 138.83
  A 0.64 0.64 0.0 0 1 1026.23 138.16
  L 1036.05 138.16
  A 0.67 0.65 81.7 0 1 1036.68 138.64
  Q 1040.76 152.89 1049.15 160.47
  Q 1056.02 166.67 1064.54 168.37
  Q 1070.21 169.50 1080.32 168.26
  A 2.52 2.49 28.0 0 0 1081.19 168.00
  Q 1081.66 167.76 1084.24 166.72
  C 1090.83 164.06 1095.38 158.57 1095.80 151.38
  Q 1096.34 142.17 1088.14 136.68
  Q 1084.85 134.48 1080.17 132.85
  Q 1067.54 128.44 1054.31 123.72
  Q 1044.05 120.07 1036.77 114.01
  C 1022.76 102.37 1024.96 80.47 1036.99 68.36
  Q 1042.61 62.71 1050.73 59.48
  Q 1052.29 58.86 1052.90 58.57
  A 1.71 0.08 -26.0 0 1 1054.18 58.02
  C 1057.74 57.44 1061.14 56.23 1064.66 55.89
  Q 1089.35 53.49 1111.38 65.79
  A 0.92 0.92 0.0 0 1 1111.86 66.60
  Z"
/>
<path fill="#000000" d="
  M 1218.63 58.48
  L 1218.63 78.02
  A 0.31 0.31 0.0 0 1 1218.32 78.33
  L 1158.16 78.33
  A 0.31 0.31 0.0 0 0 1157.85 78.64
  L 1157.85 108.12
  A 0.31 0.31 0.0 0 0 1158.16 108.43
  L 1218.32 108.43
  A 0.31 0.31 0.0 0 1 1218.63 108.74
  L 1218.63 128.31
  A 0.31 0.31 0.0 0 0 1218.94 128.62
  L 1238.53 128.62
  A 0.31 0.31 0.0 0 1 1238.84 128.93
  L 1238.84 158.77
  A 0.31 0.31 0.0 0 1 1238.53 159.08
  L 1218.94 159.08
  A 0.31 0.31 0.0 0 0 1218.63 159.39
  L 1218.63 178.54
  A 0.31 0.31 0.0 0 1 1218.32 178.85
  L 1158.46 178.85
  A 0.31 0.31 0.0 0 1 1158.15 178.54
  L 1158.15 159.18
  A 0.31 0.31 0.0 0 1 1158.46 158.87
  L 1218.46 158.87
  A 0.31 0.31 0.0 0 0 1218.77 158.56
  L 1218.77 128.78
  A 0.31 0.31 0.0 0 0 1218.46 128.47
  L 1158.46 128.47
  A 0.31 0.31 0.0 0 1 1158.15 128.16
  L 1158.15 108.62
  A 0.31 0.31 0.0 0 0 1157.84 108.31
  L 1138.69 108.31
  A 0.31 0.31 0.0 0 1 1138.38 108.00
  L 1138.38 78.77
  A 0.31 0.31 0.0 0 1 1138.69 78.46
  L 1157.83 78.46
  A 0.31 0.31 0.0 0 0 1158.14 78.15
  L 1158.14 58.48
  A 0.31 0.31 0.0 0 1 1158.45 58.17
  L 1218.32 58.17
  A 0.31 0.31 0.0 0 1 1218.63 58.48
  Z"
/>
<rect fill="#000000" x="111.14" y="60.58" width="88.94" height="29.70" rx="0.37"/>
<rect fill="#000000" x="0.17" y="71.71" width="96.30" height="7.40" rx="0.43"/>
<rect fill="#000000" x="215.00" y="71.71" width="22.08" height="7.40" rx="0.67"/>
<rect fill="#000000" x="1218.81" y="78.42" width="20.02" height="20.02" rx="0.31"/>
<rect fill="#000000" x="66.97" y="105.15" width="88.60" height="29.28" rx="0.41"/>
<rect fill="#000000" x="0.15" y="115.91" width="51.92" height="7.66" rx="0.47"/>
<rect fill="#000000" x="170.37" y="115.91" width="66.68" height="7.66" rx="0.47"/>
<rect fill="#000000" x="1138.37" y="138.96" width="19.48" height="20.12" rx="0.55"/>
<rect fill="#000000" x="37.13" y="149.41" width="44.42" height="29.44" rx="0.26"/>
<rect fill="#000000" x="155.68" y="149.37" width="44.40" height="29.48" rx="0.58"/>
<rect fill="#000000" x="774.77" y="158.87" width="40.38" height="19.98" rx="0.34"/>
<path fill="#000000" d="
  M 0.00 167.86
  L 0.00 166.81
  L 0.17 161.19
  A 0.51 0.51 0.0 0 1 0.68 160.69
  L 22.22 160.69
  A 0.25 0.25 0.0 0 1 22.47 160.94
  L 22.47 167.59
  A 0.28 0.27 90.0 0 1 22.20 167.87
  L 0.00 167.86
  Z"
/>
<rect fill="#000000" x="96.62" y="160.69" width="44.22" height="7.16" rx="0.26"/>
<rect fill="#000000" x="214.98" y="160.69" width="22.10" height="7.16" rx="0.51"/>
</svg>
